<svg width="22" height="22" viewBox="0 0 22 22" fill="none" xmlns="http://www.w3.org/2000/svg">
    <circle cx="11.3989" cy="11" r="10.5" fill="#F3D5D5"/>
    <path d="M15.9624 7.25304H14.6505C14.6329 7.24695 14.6147 7.243 14.5962 7.24119H13.1993V6.08269C13.1994 5.99563 13.1653 5.91204 13.1044 5.84986C13.0435 5.78768 12.9607 5.75182 12.8738 5.75H9.57024C9.48199 5.75 9.39738 5.785 9.33505 5.84741C9.27263 5.90982 9.23756 5.99444 9.23756 6.08269V7.24119H7.84781C7.82932 7.243 7.81107 7.24695 7.79353 7.25304H6.48161C6.36271 7.25304 6.25288 7.3164 6.19348 7.41934C6.13407 7.52228 6.13407 7.64907 6.19348 7.75202C6.25289 7.85496 6.36271 7.9184 6.48161 7.9184H7.55045L8.41411 15.9527C8.42335 16.0345 8.46238 16.1099 8.52377 16.1648C8.58507 16.2197 8.66447 16.2499 8.74679 16.25H13.7019C13.7833 16.2488 13.8615 16.2179 13.922 16.1633C13.9823 16.1085 14.0207 16.0337 14.0298 15.9527L14.8934 7.93013H15.9623C16.0812 7.93013 16.191 7.86677 16.2504 7.76382C16.3098 7.66088 16.3099 7.53401 16.2504 7.43114C16.191 7.3282 16.0812 7.26476 15.9623 7.26476L15.9624 7.25304ZM9.9101 6.41537H12.5339V7.24119H9.9101V6.41537ZM13.3999 15.5798H9.04407L8.21825 7.93021H14.2256L13.3999 15.5798Z" fill="#E41D1D"/>
    <path d="M11.2218 14.8013C11.3101 14.8013 11.3947 14.7663 11.4571 14.7039C11.5195 14.6415 11.5545 14.5569 11.5545 14.4687V9.04172C11.5545 8.92282 11.4912 8.813 11.3882 8.7536C11.2853 8.69411 11.1584 8.69411 11.0555 8.7536C10.9525 8.81301 10.8892 8.92283 10.8892 9.04172V14.4687C10.8892 14.5569 10.9242 14.6415 10.9866 14.7039C11.049 14.7663 11.1336 14.8013 11.2218 14.8013H11.2218Z" fill="#E41D1D"/>
    <path d="M9.91239 14.799H9.92653C10.0144 14.7953 10.0972 14.757 10.1569 14.6925C10.2166 14.6279 10.2483 14.5423 10.2451 14.4545L10.0445 9.02756L10.0446 9.02748C10.0427 8.9386 10.0047 8.85423 9.93925 8.79403C9.87368 8.7339 9.78646 8.70317 9.69767 8.70894C9.60982 8.71265 9.52702 8.75097 9.46737 8.81551C9.40764 8.88006 9.37596 8.96562 9.37912 9.05348L9.57971 14.4804C9.5839 14.566 9.62071 14.6467 9.68265 14.706C9.74451 14.7651 9.82675 14.7985 9.91239 14.7989L9.91239 14.799Z" fill="#E41D1D"/>
    <path d="M12.5196 14.799H12.5314C12.619 14.801 12.704 14.7685 12.768 14.7085C12.8319 14.6485 12.8698 14.5657 12.8735 14.4781L13.0741 9.05118H13.074C13.0773 8.96333 13.0455 8.87777 12.9859 8.81322C12.9261 8.74867 12.8433 8.71036 12.7555 8.70664C12.6657 8.6974 12.5761 8.7264 12.5087 8.7866C12.4413 8.84672 12.4024 8.93251 12.4015 9.0229L12.1986 14.4498H12.1987C12.1942 14.5389 12.2256 14.626 12.286 14.6917C12.3462 14.7573 12.4305 14.796 12.5196 14.799L12.5196 14.799Z" fill="#E41D1D"/>
</svg>