<svg width="20" height="20" viewBox="0 0 20 20" fill="none" xmlns="http://www.w3.org/2000/svg">
  <path d="M9.93551 12.5001C11.3162 12.5001 12.4355 11.3808 12.4355 10.0001C12.4355 8.61937 11.3162 7.50008 9.93551 7.50008C8.55479 7.50008 7.43551 8.61937 7.43551 10.0001C7.43551 11.3808 8.55479 12.5001 9.93551 12.5001Z" stroke="#475467" strokeWidth="1.66667" stroke-linecap="round" strokeLinejoin="round"/>
  <path d="M15.5416 12.2728C15.4407 12.5013 15.4106 12.7548 15.4552 13.0005C15.4998 13.2463 15.6169 13.4731 15.7916 13.6516L15.837 13.6971C15.9779 13.8378 16.0897 14.0049 16.1659 14.1888C16.2421 14.3727 16.2814 14.5699 16.2814 14.769C16.2814 14.9681 16.2421 15.1653 16.1659 15.3492C16.0897 15.5332 15.9779 15.7003 15.837 15.841C15.6963 15.9819 15.5292 16.0936 15.3453 16.1699C15.1613 16.2461 14.9642 16.2854 14.7651 16.2854C14.5659 16.2854 14.3688 16.2461 14.1848 16.1699C14.0009 16.0936 13.8338 15.9819 13.6931 15.841L13.6476 15.7955C13.4691 15.6209 13.2423 15.5037 12.9966 15.4592C12.7508 15.4146 12.4973 15.4447 12.2688 15.5455C12.0448 15.6416 11.8537 15.801 11.7191 16.0043C11.5845 16.2075 11.5122 16.4457 11.5113 16.6895V16.8183C11.5113 17.2201 11.3516 17.6055 11.0675 17.8896C10.7833 18.1738 10.398 18.3334 9.99611 18.3334C9.59427 18.3334 9.20888 18.1738 8.92474 17.8896C8.64059 17.6055 8.48096 17.2201 8.48096 16.8183V16.7501C8.4751 16.4993 8.39393 16.2561 8.24801 16.0521C8.1021 15.8481 7.89818 15.6927 7.66278 15.6061C7.43428 15.5053 7.18081 15.4752 6.93506 15.5198C6.68931 15.5643 6.46254 15.6815 6.28399 15.8561L6.23854 15.9016C6.09782 16.0425 5.93072 16.1542 5.74678 16.2305C5.56284 16.3067 5.36568 16.346 5.16657 16.346C4.96745 16.346 4.77029 16.3067 4.58635 16.2305C4.40242 16.1542 4.23531 16.0425 4.0946 15.9016C3.95372 15.7609 3.84197 15.5938 3.76572 15.4098C3.68947 15.2259 3.65022 15.0287 3.65022 14.8296C3.65022 14.6305 3.68947 14.4334 3.76572 14.2494C3.84197 14.0655 3.95372 13.8984 4.0946 13.7577L4.14005 13.7122C4.3147 13.5337 4.43186 13.3069 4.47642 13.0611C4.52098 12.8154 4.4909 12.5619 4.39005 12.3334C4.29402 12.1093 4.13456 11.9183 3.93131 11.7836C3.72806 11.649 3.48989 11.5768 3.24611 11.5758H3.11732C2.71548 11.5758 2.3301 11.4162 2.04595 11.1321C1.7618 10.8479 1.60217 10.4625 1.60217 10.0607C1.60217 9.65884 1.7618 9.27346 2.04595 8.98931C2.3301 8.70517 2.71548 8.54554 3.11732 8.54554H3.18551C3.43626 8.53967 3.67945 8.45851 3.88346 8.31259C4.08747 8.16667 4.24287 7.96276 4.32945 7.72735C4.43029 7.49886 4.46037 7.24539 4.41581 6.99964C4.37125 6.75388 4.25409 6.52711 4.07945 6.34857L4.03399 6.30311C3.89312 6.1624 3.78136 5.99529 3.70511 5.81135C3.62886 5.62742 3.58962 5.43026 3.58962 5.23114C3.58962 5.03203 3.62886 4.83487 3.70511 4.65093C3.78136 4.46699 3.89312 4.29989 4.03399 4.15917C4.17471 4.0183 4.34181 3.90654 4.52575 3.83029C4.70968 3.75405 4.90685 3.7148 5.10596 3.7148C5.30508 3.7148 5.50224 3.75405 5.68617 3.83029C5.87011 3.90654 6.03721 4.0183 6.17793 4.15917L6.22339 4.20463C6.40193 4.37928 6.6287 4.49643 6.87445 4.54099C7.12021 4.58555 7.37368 4.55547 7.60217 4.45463H7.66278C7.88685 4.35859 8.07794 4.19914 8.21255 3.99589C8.34715 3.79264 8.41938 3.55447 8.42035 3.31069V3.1819C8.42035 2.78006 8.57999 2.39467 8.86413 2.11053C9.14828 1.82638 9.53366 1.66675 9.93551 1.66675C10.3373 1.66675 10.7227 1.82638 11.0069 2.11053C11.291 2.39467 11.4507 2.78006 11.4507 3.1819V3.25008C11.4516 3.49386 11.5239 3.73203 11.6585 3.93528C11.7931 4.13853 11.9842 4.29799 12.2082 4.39402C12.4367 4.49487 12.6902 4.52495 12.936 4.48039C13.1817 4.43583 13.4085 4.31867 13.587 4.14402L13.6325 4.09857C13.7732 3.95769 13.9403 3.84594 14.1242 3.76969C14.3082 3.69344 14.5053 3.65419 14.7044 3.65419C14.9036 3.65419 15.1007 3.69344 15.2847 3.76969C15.4686 3.84594 15.6357 3.95769 15.7764 4.09857C15.9173 4.23928 16.029 4.40639 16.1053 4.59032C16.1815 4.77426 16.2208 4.97142 16.2208 5.17054C16.2208 5.36965 16.1815 5.56681 16.1053 5.75075C16.029 5.93469 15.9173 6.10179 15.7764 6.24251L15.731 6.28796C15.5563 6.46651 15.4392 6.69328 15.3946 6.93903C15.35 7.18478 15.3801 7.43825 15.481 7.66675V7.72735C15.577 7.95142 15.7365 8.14252 15.9397 8.27712C16.143 8.41172 16.3811 8.48396 16.6249 8.48493H16.7537C17.1555 8.48493 17.5409 8.64456 17.8251 8.92871C18.1092 9.21285 18.2688 9.59824 18.2688 10.0001C18.2688 10.4019 18.1092 10.7873 17.8251 11.0715C17.5409 11.3556 17.1555 11.5152 16.7537 11.5152H16.6855C16.4417 11.5162 16.2036 11.5884 16.0003 11.723C15.7971 11.8576 15.6376 12.0487 15.5416 12.2728Z" stroke="#475467" strokeWidth="1.66667" stroke-linecap="round" strokeLinejoin="round"/>
</svg>
