<svg width="57" height="49" viewBox="0 0 57 49" fill="none" xmlns="http://www.w3.org/2000/svg">
    <path d="M29.9318 12.0322L30.0243 12.0598L30.0291 12.0543C30.3938 12.1123 30.7521 11.8918 30.8593 11.5299C31.8097 8.33663 34.804 6.10566 38.1398 6.10566C38.5516 6.10566 38.8855 5.77168 38.8855 5.35991C38.8855 4.94812 38.5516 4.61416 38.1398 4.61416C34.0122 4.61416 30.5437 7.36234 29.4301 11.1048C29.3123 11.4997 29.5373 11.9145 29.9318 12.0322Z" fill="#1667A2" stroke="#F5F5F5" stroke-width="0.3"/>
    <path d="M46.48 34.5515H42.9056C42.5767 34.5515 42.3099 34.2847 42.3099 33.9557C42.3099 33.6268 42.5767 33.36 42.9056 33.36H46.48C51.4072 33.36 55.4161 29.351 55.4161 24.4239C55.4161 19.4967 51.4072 15.4877 46.48 15.4877H46.3941C46.2213 15.4877 46.057 15.4128 45.9438 15.2822C45.8307 15.1516 45.7796 14.9784 45.8043 14.8073C45.8575 14.4362 45.8843 14.0635 45.8843 13.7005C45.8843 9.43032 42.4098 5.9558 38.1396 5.9558C36.4783 5.9558 34.894 6.47495 33.5578 7.45749C33.2642 7.67324 32.8472 7.57749 32.6774 7.25451C28.8932 0.0486045 19.0092 -0.919075 13.8849 5.34943C11.7262 7.99026 10.878 11.4256 11.5577 14.7737C11.6325 15.1435 11.3496 15.4882 10.9738 15.4882H10.7351C5.80792 15.4882 1.79896 19.4971 1.79896 24.4243C1.79896 29.3515 5.80792 33.3604 10.7351 33.3604H14.3095C14.6384 33.3604 14.9053 33.6272 14.9053 33.9562C14.9053 34.2851 14.6385 34.5519 14.3095 34.5519H10.7351C5.15082 34.5519 0.607422 30.0085 0.607422 24.4243C0.607422 18.9966 4.89929 14.5524 10.2674 14.3073C9.76318 10.8336 10.7274 7.3298 12.9623 4.5954C18.4486 -2.11648 28.9628 -1.36417 33.4074 6.12007C34.8253 5.23113 36.4478 4.76479 38.1394 4.76479C43.313 4.76479 47.4126 9.16821 47.0538 14.3128C52.3725 14.6111 56.6074 19.0319 56.6074 24.4238C56.6074 30.0085 52.064 34.5515 46.4797 34.5515L46.48 34.5515Z" fill="#1667A2"/>
    <path d="M13.4838 33.6193C13.4838 41.9146 20.2323 48.6631 28.5275 48.6631C36.8228 48.6631 43.5713 41.9145 43.5713 33.6193C43.5713 25.324 36.8228 18.5756 28.5275 18.5756C20.2322 18.5756 13.4838 25.3241 13.4838 33.6193ZM14.9756 33.6193C14.9756 26.147 21.0551 20.0673 28.5275 20.0673C35.9998 20.0673 42.0795 26.1469 42.0795 33.6193C42.0795 41.0916 35.9998 47.1713 28.5275 47.1713C21.0552 47.1713 14.9756 41.0917 14.9756 33.6193Z" fill="#1667A2" stroke="#F5F5F5" stroke-width="0.3"/>
    <path d="M28.2133 39.6151C28.2133 39.9387 28.4758 40.2012 28.7994 40.2012C29.123 40.2012 29.3856 39.9391 29.3856 39.6151V28.275C29.3856 27.9514 29.1231 27.6889 28.7994 27.6889C28.4758 27.6889 28.2133 27.9514 28.2133 28.275V39.6151Z" fill="#1667A2" stroke="#1667A2" stroke-width="0.3"/>
    <path d="M28.7994 29.105L25.7248 32.1796L28.7994 29.105ZM28.7994 29.105L31.8742 32.1797C31.9885 32.294 32.1389 32.3514 32.2886 32.3514L28.7994 29.105ZM24.8958 32.1797C25.1247 32.4086 25.496 32.4088 25.7247 32.1797L28.3848 27.8617L24.8958 31.3508C24.6668 31.5797 24.6668 31.9507 24.8958 32.1797ZM29.2139 27.8616C28.985 27.6327 28.6137 27.6325 28.3849 27.8616L32.2886 32.3514C32.438 32.3514 32.5886 32.2946 32.7031 32.1797C32.9321 31.9507 32.9321 31.5797 32.7031 31.3508L29.2139 27.8616Z" fill="#1667A2" stroke="#1667A2" stroke-width="0.3"/>
</svg>
