<svg width="33" height="32" viewBox="0 0 33 32" fill="none" xmlns="http://www.w3.org/2000/svg">
    <circle cx="16.0446" cy="16" r="16" fill="#C4C4C4" fill-opacity="0.2"/>
    <path d="M11.0852 21.283C10.9972 21.2829 10.9103 21.2644 10.8299 21.2289C10.7495 21.1933 10.6773 21.1414 10.6181 21.0764C10.5577 21.012 10.5117 20.9356 10.483 20.8521C10.4542 20.7687 10.4435 20.6801 10.4514 20.5922L10.6066 18.8848L17.7799 11.7141L20.0216 13.9552L12.8503 21.1252L11.1428 21.2805C11.1237 21.2823 11.1044 21.2831 11.0852 21.283ZM20.469 13.5071L18.228 11.266L19.5722 9.92172C19.6311 9.86279 19.701 9.81605 19.7779 9.78415C19.8549 9.75226 19.9373 9.73584 20.0206 9.73584C20.1039 9.73584 20.1864 9.75226 20.2633 9.78415C20.3403 9.81605 20.4102 9.86279 20.469 9.92172L21.8133 11.266C21.8722 11.3249 21.919 11.3947 21.9509 11.4717C21.9828 11.5486 21.9992 11.6311 21.9992 11.7144C21.9992 11.7977 21.9828 11.8802 21.9509 11.9571C21.919 12.034 21.8722 12.1039 21.8133 12.1628L20.4697 13.5064L20.469 13.5071Z" fill="#1D3494"/>
</svg>
