<svg xmlns="http://www.w3.org/2000/svg" width="24" height="17" viewBox="0 0 23.74 16.837">

      <g id="hide-svgrepo-com_3_" data-name="hide-svgrepo-com (3)" transform="translate(0.001 -74.444)">

        <path

          id="Path_146"

          data-name="Path 146"

          d="M159.528,152.657a4.858,4.858,0,1,0,0,6.87l-3.435-3.435Z"

          transform="translate(-144.224 -73.229)"

          fill="#022269"

        />

        <path

          id="Path_147"

          data-name="Path 147"

          d="M23.624,82.493a23.176,23.176,0,0,0-5.256-5.213l1.73-1.73a.648.648,0,1,0-.916-.916l-1.935,1.935a10.742,10.742,0,0,0-5.378-1.591c-2.7,0-5.589,1.308-8.366,3.783A23.545,23.545,0,0,0,.115,82.493a.648.648,0,0,0,0,.739A23.541,23.541,0,0,0,3.5,86.965a19.548,19.548,0,0,0,1.87,1.478L3.641,90.175a.648.648,0,0,0,.916.916l1.937-1.937a10.816,10.816,0,0,0,5.375,1.594c2.677,0,5.551-1.291,8.311-3.734a.648.648,0,0,0-.858-.97c-1.757,1.555-4.476,3.409-7.453,3.409A9.287,9.287,0,0,1,7.444,88.2l1.018-1.018a5.511,5.511,0,0,0,7.3-.43.648.648,0,0,0,0-.916l-2.977-2.977,2.977-2.977,1.673-1.673a22.216,22.216,0,0,1,5.125,5.019.648.648,0,0,0,1.064-.739Zm-22.17.369c1.105-1.44,5.409-6.589,10.416-6.589A9.273,9.273,0,0,1,16.3,77.52l-1.02,1.02a5.5,5.5,0,0,0-7.73,7.73l-1.24,1.24A22.224,22.224,0,0,1,1.454,82.862Zm12.9,3.4a4.22,4.22,0,0,1-4.967,0l2.483-2.483ZM11.411,82.4,8.47,85.346a4.211,4.211,0,0,1,5.883-5.883Z"

          transform="translate(0)"

          fill="#022269"

        />

      </g>

    </svg>