<svg xmlns="http://www.w3.org/2000/svg" width="24.5" height="24.5" viewBox="0 0 36.219 36.219">
  <path id="Icon_ionic-ios-close-circle" data-name="Icon ionic-ios-close-circle" d="M21.484,3.375A18.109,18.109,0,1,0,39.594,21.484,18.107,18.107,0,0,0,21.484,3.375ZM26.073,28.04l-4.588-4.588L16.9,28.04a1.391,1.391,0,1,1-1.968-1.968l4.588-4.588L14.928,16.9A1.391,1.391,0,0,1,16.9,14.928l4.588,4.588,4.588-4.588A1.391,1.391,0,0,1,28.04,16.9l-4.588,4.588,4.588,4.588a1.4,1.4,0,0,1,0,1.968A1.382,1.382,0,0,1,26.073,28.04Z" transform="translate(-3.375 -3.375)" fill="#CC2B23"/>
</svg>