<svg width="52" height="52" viewBox="0 0 52 52" fill="none" xmlns="http://www.w3.org/2000/svg">
    <g filter="url(#filter0_d_3538_159605)">
        <rect x="2" y="1" width="48" height="48" rx="10" fill="white"/>
        <path d="M35 36.2797H17C16.8727 36.2797 16.7506 36.2292 16.6606 36.1391C16.5706 36.0491 16.52 35.927 16.52 35.7997V14.1997C16.52 14.0724 16.5706 13.9503 16.6606 13.8603C16.7506 13.7703 16.8727 13.7197 17 13.7197H35C35.1273 13.7197 35.2494 13.7703 35.3394 13.8603C35.4294 13.9503 35.48 14.0724 35.48 14.1997V35.7997C35.48 35.927 35.4294 36.0491 35.3394 36.1391C35.2494 36.2292 35.1273 36.2797 35 36.2797ZM17.48 35.3197H34.52V14.6797H17.48V35.3197Z" fill="#4B4B4B"/>
        <path d="M23.3025 20.5316H20.1489C20.0216 20.5316 19.8996 20.481 19.8095 20.391C19.7195 20.301 19.6689 20.1789 19.6689 20.0516V16.898C19.6689 16.7707 19.7195 16.6486 19.8095 16.5586C19.8996 16.4685 20.0216 16.418 20.1489 16.418H23.3025C23.4298 16.418 23.5519 16.4685 23.642 16.5586C23.732 16.6486 23.7825 16.7707 23.7825 16.898V20.0516C23.7825 20.1146 23.7701 20.177 23.746 20.2353C23.7219 20.2935 23.6865 20.3464 23.642 20.391C23.5974 20.4356 23.5445 20.4709 23.4862 20.495C23.428 20.5192 23.3656 20.5316 23.3025 20.5316ZM20.6289 19.5716H22.8225V17.378H20.6289V19.5716Z" fill="#4B4B4B"/>
        <path d="M23.3025 26.8285H20.1489C20.0216 26.8285 19.8996 26.778 19.8095 26.6879C19.7195 26.5979 19.6689 26.4758 19.6689 26.3485V23.1997C19.6689 23.0724 19.7195 22.9503 19.8095 22.8603C19.8996 22.7703 20.0216 22.7197 20.1489 22.7197H23.3025C23.4298 22.7197 23.5519 22.7703 23.642 22.8603C23.732 22.9503 23.7825 23.0724 23.7825 23.1997V26.3485C23.7825 26.4116 23.7701 26.474 23.746 26.5322C23.7219 26.5905 23.6865 26.6434 23.642 26.6879C23.5974 26.7325 23.5445 26.7679 23.4862 26.792C23.428 26.8161 23.3656 26.8285 23.3025 26.8285ZM20.6289 25.8685H22.8225V23.6797H20.6289V25.8685Z" fill="#4B4B4B"/>
        <path d="M23.3025 33.1313H20.1489C20.0216 33.1313 19.8996 33.0807 19.8095 32.9907C19.7195 32.9007 19.6689 32.7786 19.6689 32.6513V29.5025C19.6689 29.3752 19.7195 29.2531 19.8095 29.163C19.8996 29.073 20.0216 29.0225 20.1489 29.0225H23.3025C23.4298 29.0225 23.5519 29.073 23.642 29.163C23.732 29.2531 23.7825 29.3752 23.7825 29.5025V32.6513C23.7825 32.7786 23.732 32.9007 23.642 32.9907C23.5519 33.0807 23.4298 33.1313 23.3025 33.1313ZM20.6289 32.1713H22.8225V29.9825H20.6289V32.1713Z" fill="#4B4B4B"/>
        <path d="M32.7537 18.6689H25.1025V19.6289H32.7537V18.6689Z" fill="#4B4B4B"/>
        <path d="M32.7537 24.9717H25.1025V25.9317H32.7537V24.9717Z" fill="#4B4B4B"/>
        <path d="M32.7537 31.2686H25.1025V32.2286H32.7537V31.2686Z" fill="#4B4B4B"/>
        <rect x="2.5" y="1.5" width="47" height="47" rx="9.5" stroke="#EFEFEF"/>
    </g>
    <defs>
        <filter id="filter0_d_3538_159605" x="0" y="0" width="52" height="52" filterUnits="userSpaceOnUse" color-interpolation-filters="sRGB">
            <feFlood flood-opacity="0" result="BackgroundImageFix"/>
            <feColorMatrix in="SourceAlpha" type="matrix" values="0 0 0 0 0 0 0 0 0 0 0 0 0 0 0 0 0 0 127 0" result="hardAlpha"/>
            <feOffset dy="1"/>
            <feGaussianBlur stdDeviation="1"/>
            <feColorMatrix type="matrix" values="0 0 0 0 0.0627451 0 0 0 0 0.0941176 0 0 0 0 0.156863 0 0 0 0.05 0"/>
            <feBlend mode="normal" in2="BackgroundImageFix" result="effect1_dropShadow_3538_159605"/>
            <feBlend mode="normal" in="SourceGraphic" in2="effect1_dropShadow_3538_159605" result="shape"/>
        </filter>
    </defs>
</svg>
