<svg xmlns="http://www.w3.org/2000/svg" width="24" height="17" viewBox="0 0 23.246 15.441">

      <g id="hide-svgrepo-com_3_" data-name="hide-svgrepo-com (3)" transform="translate(-73 -52.281)">

        <g id="Group_1907" data-name="Group 1907" transform="translate(73 52.282)">

          <g id="show-svgrepo-com" transform="translate(0 0)">

            <path

              id="Path_322"

              data-name="Path 322"

              d="M11.624,101.383c-2.64,0-5.472-1.281-8.192-3.7A23.045,23.045,0,0,1,.114,94.024a.634.634,0,0,1,0-.723,23.046,23.046,0,0,1,3.318-3.655c2.72-2.423,5.553-3.7,8.192-3.7a10.6,10.6,0,0,1,5.4,1.634A22.1,22.1,0,0,1,23.133,93.3a.634.634,0,0,1-1.042.723,21.185,21.185,0,0,0-5.717-5.358,9.354,9.354,0,0,0-4.751-1.456c-4.9,0-9.117,5.042-10.2,6.452,1.084,1.409,5.3,6.453,10.2,6.453,2.914,0,5.577-1.815,7.3-3.338a.634.634,0,0,1,.841.95C17.059,100.119,14.245,101.383,11.624,101.383Z"

              transform="translate(0 -85.941)"

              fill="#022269"

            />

            <path

              id="Path_323"

              data-name="Path 323"

              d="M159.353,152.627a4.757,4.757,0,1,0,0,6.727l-3.363-3.363Z"

              transform="translate(-144.367 -148.27)"

              fill="#022269"

            />

            <path

              id="Path_324"

              data-name="Path 324"

              d="M142.709,148.1a5.39,5.39,0,1,1,3.812-9.2.634.634,0,0,1,0,.9l-2.915,2.915,2.915,2.915a.634.634,0,0,1,0,.9A5.375,5.375,0,0,1,142.709,148.1Zm0-9.509a4.122,4.122,0,1,0,2.432,7.45l-2.881-2.881a.634.634,0,0,1,0-.9l2.881-2.881A4.116,4.116,0,0,0,142.709,138.588Z"

              transform="translate(-131.086 -134.987)"

              fill="#022269"

            />

          </g>

        </g>

      </g>

    </svg>