<svg width="22" height="22" viewBox="0 0 22 22" fill="none" xmlns="http://www.w3.org/2000/svg">
    <path d="M11.3989 21.5C8.61424 21.5 5.94327 20.3937 3.97432 18.4246C2.00523 16.4554 0.898926 13.7847 0.898926 11C0.898926 8.21531 2.00523 5.54435 3.97432 3.57539C5.94356 1.60631 8.61424 0.500001 11.3989 0.500001C14.1836 0.500001 16.8546 1.60631 18.8235 3.57539C20.7926 5.54464 21.8989 8.21531 21.8989 11C21.8956 13.7837 20.7883 16.4528 18.8199 18.4209C16.8514 20.3894 14.1824 21.4966 11.3989 21.5V21.5ZM15.4481 8.29942V8.29926C15.6322 8.1214 15.7372 7.87708 15.7394 7.62107C15.7417 7.36507 15.641 7.11883 15.4599 6.93776C15.2789 6.7567 15.0326 6.65603 14.7766 6.65827C14.5206 6.66051 14.2763 6.7655 14.0984 6.94959L11.3989 9.65009L8.69941 6.94959C8.45699 6.71548 8.10909 6.62647 7.78391 6.71564C7.45887 6.80481 7.20496 7.05873 7.11578 7.38377C7.02661 7.70896 7.11562 8.05685 7.34973 8.29927L10.0492 10.9998L7.34973 13.7003C7.16564 13.8781 7.06065 14.1225 7.05841 14.3785C7.05617 14.6345 7.15685 14.8807 7.3379 15.0618C7.51896 15.2428 7.7652 15.3435 8.02121 15.3413C8.27721 15.339 8.52153 15.234 8.6994 15.0499L11.3989 12.3494L14.0984 15.0499C14.2763 15.234 14.5206 15.339 14.7766 15.3413C15.0326 15.3435 15.2789 15.2428 15.4599 15.0618C15.641 14.8807 15.7417 14.6345 15.7394 14.3785C15.7372 14.1225 15.6322 13.8781 15.4481 13.7003L12.7486 10.9998L15.4481 8.29942Z" fill="#EB5757"/>
</svg>
