<svg width="25" height="24" viewBox="0 0 25 24" fill="none" xmlns="http://www.w3.org/2000/svg">
<path d="M8.08461 13.1672C8.22158 13.2459 8.50071 13.2459 9.05897 13.2459C9.46198 13.2459 9.66349 13.2459 9.78781 13.3076C10.0104 13.418 10.1404 13.6557 10.1133 13.9027C10.0981 14.0406 9.98941 14.2103 9.77198 14.5496L6.76601 19.2408C6.344 19.8993 6.13299 20.2286 6.23042 20.3125C6.32784 20.3963 6.62201 20.1386 7.21035 19.6232L15.696 12.1891C16.1091 11.8272 16.3156 11.6462 16.3671 11.4994C16.4621 11.2287 16.3493 10.9289 16.0995 10.7878C15.964 10.7113 15.6894 10.7113 15.1403 10.7113C14.7425 10.7113 14.5436 10.7113 14.4207 10.6512C14.1949 10.541 14.0633 10.3002 14.0924 10.0506C14.1082 9.91468 14.2156 9.7473 14.4304 9.41253L17.4222 4.74923C17.8425 4.09412 18.0526 3.76656 17.9554 3.68266C17.8581 3.59875 17.5649 3.85459 16.9784 4.36627L8.50227 11.761C8.0816 12.128 7.87126 12.3115 7.81978 12.4608C7.72721 12.7293 7.83833 13.0258 8.08461 13.1672Z" fill="white"/>
<path fillRule="evenodd" clipRule="evenodd" d="M0.0136719 6.00009C0.0136719 3.17166 0.0136719 1.75745 0.892352 0.878771C1.77103 9.15527e-05 3.18525 9.15527e-05 6.01367 9.15527e-05H18.0137C20.8421 9.15527e-05 22.2563 9.15527e-05 23.135 0.878771C24.0137 1.75745 24.0137 3.17166 24.0137 6.00009V18.0001C24.0137 20.8285 24.0137 22.2427 23.135 23.1214C22.2563 24.0001 20.8421 24.0001 18.0137 24.0001H6.01367C3.18525 24.0001 1.77103 24.0001 0.892352 23.1214C0.0136719 22.2427 0.0136719 20.8285 0.0136719 18.0001V6.00009ZM6.01367 1.50009H18.0137C19.4703 1.50009 20.4119 1.50328 21.1056 1.59655C21.7562 1.68402 21.9601 1.82525 22.0743 1.93943C22.1885 2.05362 22.3297 2.25754 22.4172 2.90815C22.5105 3.60191 22.5137 4.54347 22.5137 6.00009V18.0001C22.5137 19.4567 22.5105 20.3983 22.4172 21.092C22.3297 21.7426 22.1885 21.9466 22.0743 22.0608C21.9601 22.1749 21.7562 22.3162 21.1056 22.4036C20.4119 22.4969 19.4703 22.5001 18.0137 22.5001H6.01367C4.55705 22.5001 3.61549 22.4969 2.92173 22.4036C2.27112 22.3162 2.0672 22.1749 1.95301 22.0608C1.83883 21.9466 1.6976 21.7426 1.61013 21.092C1.51686 20.3983 1.51367 19.4567 1.51367 18.0001V6.00009C1.51367 4.54347 1.51686 3.60191 1.61013 2.90815C1.6976 2.25754 1.83883 2.05362 1.95301 1.93943C2.0672 1.82525 2.27112 1.68402 2.92173 1.59655C3.61549 1.50328 4.55705 1.50009 6.01367 1.50009Z" fill="white"/>
</svg>
