<svg width="53" height="52" viewBox="0 0 53 52" fill="none" xmlns="http://www.w3.org/2000/svg">
    <g filter="url(#filter0_d_3538_159683)">
        <rect x="2.61035" y="1" width="48" height="48" rx="10" fill="transparent"/>
        <path fill-rule="evenodd" clip-rule="evenodd" d="M36.6104 14.75C36.6104 14.4744 36.4592 14.2211 36.2168 14.0901C35.9746 13.9593 35.6794 13.9722 35.4491 14.1228C35.4023 14.1521 35.355 14.1805 35.3072 14.2081C35.2016 14.2691 35.0381 14.3595 34.8175 14.4695C34.3762 14.6897 33.7067 14.9887 32.8158 15.2894C31.0348 15.8906 28.3657 16.5 24.8604 16.5H24.3651C24.3636 16.5 24.362 16.5 24.3604 16.5H21.1104C18.0728 16.5 15.6104 18.9624 15.6104 22C15.6104 24.5176 17.3018 26.64 19.6104 27.293V27.75C19.6104 30.8113 20.2943 33.2548 20.6715 34.3712C20.911 35.0798 21.575 35.5 22.2716 35.5H24.2846C25.5784 35.5 26.3838 34.1784 26.0163 33.0465C25.6049 31.7795 25.1104 29.7792 25.1104 27.5C25.1104 27.4701 25.1086 27.4407 25.1052 27.4118C28.4869 27.4403 31.0706 28.0559 32.8081 28.6634C33.6983 28.9745 34.3671 29.2839 34.808 29.5117C34.8919 29.5551 34.9794 29.6077 35.0697 29.6619C35.4267 29.8764 35.8266 30.1166 36.2114 29.9128C36.4568 29.7828 36.6104 29.5278 36.6104 29.25V14.75ZM25.1104 25.9118C28.6741 25.9409 31.4231 26.5901 33.3032 27.2474C34.0408 27.5053 34.6442 27.7642 35.1104 27.9872V15.9927C34.6434 16.2087 34.0374 16.4602 33.2955 16.7106C31.4172 17.3447 28.6708 17.9709 25.1104 17.999V25.9118ZM21.1104 27.75V27.5H23.6104C23.6104 29.9857 24.1476 32.1484 24.5896 33.5098C24.6249 33.6187 24.606 33.7471 24.5336 33.8533C24.4633 33.9566 24.3713 34 24.2846 34H22.2716C22.1663 34 22.1099 33.9421 22.0926 33.891C21.7485 32.8726 21.1104 30.5974 21.1104 27.75ZM21.1104 18H23.6104V26H21.1104C18.9012 26 17.1104 24.2091 17.1104 22C17.1104 19.7909 18.9012 18 21.1104 18Z" fill="#344054"/>
        <rect x="3.11035" y="1.5" width="47" height="47" rx="9.5" stroke="#E4E7EC"/>
    </g>
    <defs>
        <filter id="filter0_d_3538_159683" x="0.610352" y="0" width="52" height="52" filterUnits="userSpaceOnUse" color-interpolation-filters="sRGB">
            <feFlood flood-opacity="0" result="BackgroundImageFix"/>
            <feColorMatrix in="SourceAlpha" type="matrix" values="0 0 0 0 0 0 0 0 0 0 0 0 0 0 0 0 0 0 127 0" result="hardAlpha"/>
            <feOffset dy="1"/>
            <feGaussianBlur stdDeviation="1"/>
            <feColorMatrix type="matrix" values="0 0 0 0 0.0627451 0 0 0 0 0.0941176 0 0 0 0 0.156863 0 0 0 0.05 0"/>
            <feBlend mode="normal" in2="BackgroundImageFix" result="effect1_dropShadow_3538_159683"/>
            <feBlend mode="normal" in="SourceGraphic" in2="effect1_dropShadow_3538_159683" result="shape"/>
        </filter>
    </defs>
</svg>
