<svg width="33" height="32" viewBox="0 0 33 32" fill="none" xmlns="http://www.w3.org/2000/svg">
    <circle cx="16.0446" cy="16" r="16" fill="#C4C4C4" fill-opacity="0.2"/>
    <path d="M16.9183 14.3581L16.762 12.5696L18.8936 12.3828C18.2228 11.7369 17.3677 11.3155 16.4468 11.1771C15.5259 11.0387 14.5848 11.1901 13.7538 11.6104C12.9228 12.0306 12.243 12.6988 11.8086 13.5225C11.3742 14.3462 11.2068 15.2847 11.3294 16.2078C11.452 17.1309 11.8587 17.993 12.493 18.6748C13.1274 19.3565 13.958 19.8241 14.8699 20.0128C15.7818 20.2015 16.7299 20.102 17.5827 19.728C18.4355 19.3539 19.1509 18.724 19.6298 17.9253L21.4273 18.3743C20.8423 19.5723 19.8915 20.5532 18.7123 21.1753C17.5331 21.7973 16.1867 22.0283 14.8676 21.8348C13.5485 21.6414 12.3251 21.0334 11.3742 20.0989C10.4234 19.1644 9.79429 17.9518 9.57794 16.6362C9.36159 15.3207 9.56918 13.9704 10.1707 12.7806C10.7722 11.5908 11.7365 10.6231 12.9241 10.0174C14.1118 9.41166 15.4613 9.19928 16.7776 9.41095C18.0939 9.62263 19.3088 10.2474 20.2466 11.1949L20.0267 8.6782L21.8152 8.52197L22.2848 13.8885L16.9183 14.3581Z" fill="#1D3494"/>
</svg>
