<svg width="33" height="32" viewBox="0 0 33 32" fill="none" xmlns="http://www.w3.org/2000/svg">
<circle cx="16.4326" cy="16" r="16" fill="#EFEFEF"/>
<path d="M13.3518 12.8052L13.9715 13.2276L13.3518 12.8052ZM17.4211 13.2792L17.8141 12.6404L17.4211 13.2792ZM14.6496 12.0065L14.566 11.2612L14.6496 12.0065ZM14.6496 19.9935L14.566 20.7388L14.6496 19.9935ZM13.3518 19.1948L12.7321 19.6172L13.3518 19.1948ZM19.8407 16.7987L19.1487 16.5096L19.8407 16.7987ZM19.8407 15.2013L19.1487 15.4904L19.8407 15.2013ZM25.25 16C25.25 21.1086 21.1086 25.25 16 25.25V26.75C21.9371 26.75 26.75 21.9371 26.75 16H25.25ZM16 25.25C10.8914 25.25 6.75 21.1086 6.75 16H5.25C5.25 21.9371 10.0629 26.75 16 26.75V25.25ZM6.75 16C6.75 10.8914 10.8914 6.75 16 6.75V5.25C10.0629 5.25 5.25 10.0629 5.25 16H6.75ZM16 6.75C21.1086 6.75 25.25 10.8914 25.25 16H26.75C26.75 10.0629 21.9371 5.25 16 5.25V6.75ZM13.75 16C13.75 15.0932 13.7507 14.462 13.7912 13.9908C13.8323 13.5138 13.9075 13.3216 13.9715 13.2276L12.7321 12.3828C12.4443 12.8049 12.3436 13.3173 12.2967 13.8622C12.2493 14.413 12.25 15.121 12.25 16H13.75ZM17.8141 12.6404C17.1019 12.2021 16.5221 11.8443 16.0453 11.6099C15.5738 11.3781 15.0828 11.2033 14.566 11.2612L14.7331 12.7519C14.8116 12.7431 14.9809 12.7581 15.3836 12.9561C15.7811 13.1515 16.2894 13.4634 17.028 13.9179L17.8141 12.6404ZM13.9715 13.2276C14.1613 12.9492 14.4415 12.7845 14.7331 12.7519L14.566 11.2612C13.8191 11.3449 13.156 11.7608 12.7321 12.3828L13.9715 13.2276ZM17.028 18.0821C16.2894 18.5366 15.7811 18.8485 15.3836 19.0439C14.9809 19.2419 14.8116 19.2569 14.7331 19.2481L14.566 20.7388C15.0828 20.7967 15.5738 20.6219 16.0453 20.3901C16.5221 20.1557 17.1019 19.7979 17.8141 19.3596L17.028 18.0821ZM12.25 16C12.25 16.879 12.2493 17.587 12.2967 18.1378C12.3436 18.6827 12.4443 19.1951 12.7321 19.6172L13.9715 18.7724C13.9075 18.6784 13.8323 18.4862 13.7912 18.0092C13.7507 17.538 13.75 16.9068 13.75 16H12.25ZM14.7331 19.2481C14.4415 19.2155 14.1613 19.0508 13.9715 18.7724L12.7321 19.6172C13.156 20.2392 13.8191 20.6551 14.566 20.7388L14.7331 19.2481ZM17.8141 19.3596C18.5268 18.921 19.1069 18.5649 19.5349 18.2426C19.9627 17.9204 20.3337 17.5645 20.5328 17.0877L19.1487 16.5096C19.1044 16.6157 18.9909 16.7745 18.6325 17.0444C18.2742 17.3142 17.7662 17.6278 17.028 18.0821L17.8141 19.3596ZM17.028 13.9179C17.7662 14.3722 18.2742 14.6858 18.6325 14.9556C18.9909 15.2255 19.1044 15.3843 19.1487 15.4904L20.5328 14.9123C20.3337 14.4355 19.9627 14.0796 19.5349 13.7574C19.1069 13.4351 18.5268 13.079 17.8141 12.6404L17.028 13.9179ZM20.5328 17.0877C20.8224 16.3944 20.8224 15.6056 20.5328 14.9123L19.1487 15.4904C19.2838 15.8138 19.2838 16.1862 19.1487 16.5096L20.5328 17.0877Z" fill="#7F56D9"/>
</svg>
