<svg width="33" height="32" viewBox="0 0 33 32" fill="none" xmlns="http://www.w3.org/2000/svg">
    <circle cx="16.0446" cy="16" r="16" fill="#C4C4C4" fill-opacity="0.2"/>
    <path d="M25.283 9.36322H22.8277C22.7949 9.35184 22.7608 9.34444 22.7262 9.34104H20.112V7.17292C20.1121 7.00998 20.0482 6.85355 19.9344 6.73718C19.8204 6.62082 19.6654 6.55369 19.5027 6.55029H13.3201C13.155 6.55029 12.9966 6.61579 12.88 6.7326C12.7632 6.8494 12.6975 7.00775 12.6975 7.17291V9.34104H10.0966C10.062 9.34444 10.0279 9.35183 9.99504 9.36322H7.53979C7.31727 9.36322 7.11173 9.48179 7.00057 9.67445C6.88938 9.8671 6.88938 10.1044 7.00057 10.2971C7.11175 10.4897 7.31727 10.6084 7.53979 10.6084H9.54012L11.1565 25.6446C11.1738 25.7976 11.2468 25.9388 11.3617 26.0416C11.4764 26.1442 11.625 26.2008 11.7791 26.201H21.0525C21.2049 26.1988 21.3513 26.141 21.4644 26.0386C21.5774 25.9362 21.6491 25.7962 21.6662 25.6446L23.2824 10.6304H25.2829C25.5054 10.6304 25.7109 10.5118 25.8221 10.3192C25.9333 10.1265 25.9333 9.88905 25.8221 9.69654C25.7109 9.50389 25.5054 9.38516 25.2829 9.38516L25.283 9.36322ZM13.9562 7.79552H18.8666V9.34104H13.9562V7.79552ZM20.4873 24.9468H12.3354L10.7899 10.6305H22.0327L20.4873 24.9468Z" fill="#1D3494"/>
    <path d="M16.4116 23.4897C16.5768 23.4897 16.7351 23.4241 16.8519 23.3074C16.9687 23.1906 17.0342 23.0322 17.0342 22.8671V12.7106C17.0342 12.4881 16.9156 12.2826 16.723 12.1714C16.5303 12.0601 16.2929 12.0601 16.1002 12.1714C15.9076 12.2826 15.789 12.4881 15.789 12.7106V22.8671C15.789 23.0322 15.8545 23.1906 15.9713 23.3074C16.0881 23.4241 16.2465 23.4897 16.4116 23.4897H16.4116Z" fill="#1D3494"/>
    <path d="M13.9604 23.4851H13.9869C14.1513 23.4783 14.3063 23.4066 14.4181 23.2858C14.5297 23.165 14.5891 23.0049 14.5831 22.8405L14.2077 12.684L14.2078 12.6839C14.2044 12.5175 14.1333 12.3596 14.0107 12.2469C13.888 12.1344 13.7248 12.0769 13.5586 12.0877C13.3942 12.0947 13.2392 12.1664 13.1276 12.2872C13.0158 12.408 12.9565 12.5681 12.9624 12.7325L13.3378 22.889C13.3457 23.0491 13.4146 23.2002 13.5305 23.3111C13.6463 23.4218 13.8002 23.4842 13.9604 23.4851L13.9604 23.4851Z" fill="#1D3494"/>
    <path d="M18.8401 23.4856H18.8622C19.0263 23.4893 19.1852 23.4284 19.305 23.3162C19.4246 23.2038 19.4956 23.049 19.5025 22.885L19.8779 12.7285H19.8778C19.8838 12.5641 19.8244 12.404 19.7128 12.2832C19.601 12.1624 19.446 12.0907 19.2816 12.0837C19.1135 12.0664 18.9458 12.1207 18.8197 12.2334C18.6936 12.3459 18.6208 12.5064 18.6192 12.6756L18.2394 22.8321H18.2395C18.2311 22.9987 18.29 23.1618 18.4029 23.2846C18.5157 23.4075 18.6733 23.48 18.8401 23.4856L18.8401 23.4856Z" fill="#1D3494"/>
</svg>
