
<svg width="19" height="18" viewBox="0 0 19 18" fill="none" xmlns="http://www.w3.org/2000/svg">
<path d="M17.69 2.57664H15.441C15.4109 2.56621 15.3796 2.55944 15.348 2.55632H12.9534V0.570323C12.9535 0.421074 12.895 0.277785 12.7907 0.171189C12.6863 0.0646028 12.5443 0.00311347 12.3952 0H6.73205C6.58077 0 6.43572 0.0599984 6.32886 0.16699C6.22187 0.273982 6.16174 0.419032 6.16174 0.57032V2.55632H3.77931C3.74762 2.55943 3.71633 2.56621 3.68627 2.57663H1.43725C1.23343 2.57663 1.04516 2.68525 0.943328 2.86172C0.841482 3.03819 0.841482 3.25555 0.943328 3.43203C1.04517 3.6085 1.23343 3.71726 1.43725 3.71726H3.26955L4.75012 17.4904C4.76596 17.6305 4.83287 17.7599 4.9381 17.854C5.04319 17.948 5.17931 17.9999 5.32042 18H13.8148C13.9545 17.998 14.0886 17.945 14.1922 17.8513C14.2956 17.7574 14.3613 17.6292 14.377 17.4904L15.8575 3.73736H17.6899C17.8937 3.73736 18.082 3.62874 18.1838 3.45227C18.2857 3.27579 18.2857 3.0583 18.1838 2.88196C18.082 2.70549 17.8937 2.59674 17.6899 2.59674L17.69 2.57664ZM7.31467 1.14063H11.8126V2.55632H7.31467V1.14063ZM13.2972 16.8512H5.83005L4.41436 3.7375H14.7127L13.2972 16.8512Z" fill="white"/>
<path d="M9.56384 15.5163C9.71512 15.5163 9.86017 15.4562 9.96717 15.3493C10.0742 15.2423 10.1342 15.0973 10.1342 14.946V5.64268C10.1342 5.43885 10.0255 5.25058 9.84907 5.14875C9.6726 5.04677 9.4551 5.04677 9.27862 5.14875C9.10215 5.2506 8.99353 5.43885 8.99353 5.64268V14.946C8.99353 15.0973 9.05353 15.2423 9.16052 15.3493C9.26751 15.4562 9.41256 15.5163 9.56385 15.5163H9.56384Z" fill="white"/>
<path d="M7.31859 15.5125H7.34283C7.49344 15.5063 7.63537 15.4406 7.73777 15.3299C7.84002 15.2193 7.89447 15.0726 7.88892 14.922L7.54505 5.61867L7.54518 5.61854C7.54207 5.46618 7.47692 5.32153 7.36465 5.21833C7.25224 5.11526 7.10272 5.06258 6.9505 5.07247C6.7999 5.07883 6.65796 5.14452 6.5557 5.25517C6.45331 5.36582 6.39901 5.51249 6.40442 5.66311L6.74829 14.9664C6.75547 15.1131 6.81858 15.2515 6.92476 15.3531C7.0308 15.4545 7.17179 15.5117 7.31859 15.5125L7.31859 15.5125Z" fill="white"/>
<path d="M11.7884 15.5129H11.8085C11.9589 15.5163 12.1045 15.4605 12.2142 15.3577C12.3237 15.2548 12.3887 15.113 12.3951 14.9628L12.739 5.65945H12.7388C12.7444 5.50885 12.6899 5.36218 12.5877 5.25151C12.4853 5.14086 12.3434 5.07518 12.1927 5.06881C12.0388 5.05297 11.8852 5.10267 11.7697 5.20587C11.6541 5.30894 11.5875 5.45602 11.586 5.61097L11.2381 14.9143H11.2382C11.2305 15.0669 11.2844 15.2163 11.3879 15.3288C11.4912 15.4414 11.6356 15.5078 11.7884 15.5129L11.7884 15.5129Z" fill="white"/>
</svg>
