<svg xmlns="http://www.w3.org/2000/svg" width="27.13" height="27.13" viewBox="0 0 36.219 36.219">
  <path id="Icon_awesome-check-circle" data-name="Icon awesome-check-circle" d="M36.781,18.672A18.109,18.109,0,1,1,18.672.563,18.109,18.109,0,0,1,36.781,18.672Zm-20.2,9.589L30.013,14.825a1.168,1.168,0,0,0,0-1.652L28.361,11.52a1.168,1.168,0,0,0-1.652,0L15.751,22.478l-5.116-5.116a1.168,1.168,0,0,0-1.652,0L7.331,19.014a1.168,1.168,0,0,0,0,1.652l7.594,7.594a1.168,1.168,0,0,0,1.652,0Z" transform="translate(-0.563 -0.563)" fill="#34A770"/>
</svg>
