<svg xmlns="http://www.w3.org/2000/svg" width="17.818" height="20.364" viewBox="0 0 17.818 20.364">
  <path id="Icon_awesome-calendar-alt" data-name="Icon awesome-calendar-alt" d="M0,18.455a1.91,1.91,0,0,0,1.909,1.909h14a1.91,1.91,0,0,0,1.909-1.909V7.636H0Zm12.727-7.8a.479.479,0,0,1,.477-.477H14.8a.479.479,0,0,1,.477.477V12.25a.479.479,0,0,1-.477.477H13.2a.479.479,0,0,1-.477-.477Zm0,5.091a.479.479,0,0,1,.477-.477H14.8a.479.479,0,0,1,.477.477v1.591a.479.479,0,0,1-.477.477H13.2a.479.479,0,0,1-.477-.477ZM7.636,10.659a.479.479,0,0,1,.477-.477H9.7a.479.479,0,0,1,.477.477V12.25a.479.479,0,0,1-.477.477H8.114a.479.479,0,0,1-.477-.477Zm0,5.091a.479.479,0,0,1,.477-.477H9.7a.479.479,0,0,1,.477.477v1.591a.479.479,0,0,1-.477.477H8.114a.479.479,0,0,1-.477-.477ZM2.545,10.659a.479.479,0,0,1,.477-.477H4.614a.479.479,0,0,1,.477.477V12.25a.479.479,0,0,1-.477.477H3.023a.479.479,0,0,1-.477-.477Zm0,5.091a.479.479,0,0,1,.477-.477H4.614a.479.479,0,0,1,.477.477v1.591a.479.479,0,0,1-.477.477H3.023a.479.479,0,0,1-.477-.477Zm13.364-13.2H14V.636A.638.638,0,0,0,13.364,0H12.091a.638.638,0,0,0-.636.636V2.545H6.364V.636A.638.638,0,0,0,5.727,0H4.455a.638.638,0,0,0-.636.636V2.545H1.909A1.91,1.91,0,0,0,0,4.455V6.364H17.818V4.455A1.91,1.91,0,0,0,15.909,2.545Z" fill="#707070"/>
</svg>
