<svg width="56" height="56" viewBox="0 0 56 56" fill="none" xmlns="http://www.w3.org/2000/svg">
    <rect x="4" y="4" width="48" height="48" rx="24" fill="#FEF0C7"/>
    <path fill-rule="evenodd" clip-rule="evenodd" d="M28 18.5C25.7632 18.5 23.8393 19.8353 22.9799 21.7501C22.8973 21.9342 22.8387 22.0645 22.7936 22.1594C22.7713 22.2064 22.7545 22.2398 22.7417 22.2637C22.7321 22.2815 22.727 22.2897 22.7259 22.2915C22.7257 22.2917 22.7257 22.2918 22.7256 22.2919C22.6566 22.3883 22.6202 22.4176 22.5989 22.4314C22.5776 22.4452 22.5356 22.4666 22.4183 22.4902C22.3828 22.4973 22.309 22.5 22 22.5C20.067 22.5 18.5 24.067 18.5 26C18.5 27.933 20.067 29.5 22 29.5H22.6716L23.6716 28.5H22C20.6193 28.5 19.5 27.3807 19.5 26C19.5 24.6193 20.6193 23.5 22 23.5L22.0536 23.5C22.2796 23.5002 22.4674 23.5004 22.6156 23.4705C22.7964 23.4341 22.9742 23.3797 23.1423 23.2709C23.3104 23.1621 23.4329 23.0222 23.5401 22.8721C23.598 22.7911 23.6497 22.6878 23.6967 22.5888C23.7472 22.4828 23.8102 22.3423 23.8895 22.1655L23.8896 22.1654L23.8922 22.1595C24.5962 20.5909 26.1713 19.5 28 19.5C29.8287 19.5 31.4038 20.5909 32.1078 22.1595L32.1105 22.1657C32.1898 22.3424 32.2529 22.4828 32.3033 22.5888C32.3503 22.6878 32.402 22.7911 32.4599 22.8721C32.5671 23.0222 32.6896 23.1621 32.8577 23.2709C33.0258 23.3797 33.2036 23.4341 33.3844 23.4705C33.5326 23.5004 33.7204 23.5002 33.9464 23.5L34 23.5C35.3807 23.5 36.5 24.6193 36.5 26C36.5 27.3807 35.3807 28.5 34 28.5H32.3284L33.3284 29.5H34C35.933 29.5 37.5 27.933 37.5 26C37.5 24.067 35.933 22.5 34 22.5C33.691 22.5 33.6172 22.4973 33.5817 22.4902C33.4644 22.4666 33.4224 22.4452 33.4011 22.4314C33.3798 22.4176 33.3434 22.3883 33.2744 22.2919L33.2741 22.2915C33.273 22.2897 33.2679 22.2815 33.2583 22.2637C33.2455 22.2398 33.2287 22.2064 33.2064 22.1594C33.1613 22.0645 33.1027 21.9342 33.0201 21.7501C32.1607 19.8353 30.2368 18.5 28 18.5Z" fill="#D86613"/>
    <path d="M28 28L27.6464 27.6464L28 27.2929L28.3536 27.6464L28 28ZM28.5 37C28.5 37.2761 28.2761 37.5 28 37.5C27.7239 37.5 27.5 37.2761 27.5 37L28.5 37ZM23.6464 31.6464L27.6464 27.6464L28.3536 28.3536L24.3536 32.3536L23.6464 31.6464ZM28.3536 27.6464L32.3536 31.6464L31.6464 32.3536L27.6464 28.3536L28.3536 27.6464ZM28.5 28L28.5 37L27.5 37L27.5 28L28.5 28Z" fill="#D86613"/>
    <rect x="4" y="4" width="48" height="48" rx="24" stroke="#FFFAEB" strokeWidth="8"/>
</svg>
