<svg width="33" height="33" viewBox="0 0 33 33" fill="none" xmlns="http://www.w3.org/2000/svg">
<path d="M16.3252 32.5C25.1614 32.5 32.3252 25.3354 32.3252 16.4983C32.3252 7.66117 25.158 0.5 16.3252 0.5C7.49243 0.5 0.325195 7.66459 0.325195 16.5017C0.332021 25.332 7.49243 32.4932 16.3252 32.5ZM16.3252 7.96837C19.2706 7.96837 21.6597 10.3577 21.6597 13.3034C21.6597 16.2491 19.2706 18.6385 16.3252 18.6385C13.3798 18.6385 10.9907 16.2491 10.9907 13.3034C10.9907 10.3577 13.3798 7.96837 16.3252 7.96837ZM6.37298 24.9907C8.95659 22.26 12.5641 20.7274 16.3252 20.765C20.0829 20.7411 23.6836 22.2702 26.2774 24.9907C26.4583 25.1716 26.6289 25.3627 26.8098 25.5675C21.8098 31.3599 13.0624 31.9982 7.274 27.0011C6.76206 26.5608 6.28424 26.0795 5.84055 25.5675C6.02144 25.3627 6.19209 25.1716 6.37298 24.9907Z" fill="#413F44"/>
</svg>
